HIERARCHY
ROOT Root
{
  OFFSET 0.0 0.0 0.0
  CHANNELS 6 Xposition Yposition Zposition Zrotation Yrotation Xrotation
  JOINT Hips
  {
    OFFSET 0.0 100.0 0.0
    CHANNELS 6 Xposition Yposition Zposition Zrotation Yrotation Xrotation
    JOINT Spine1
    {
      OFFSET -0.013727 5.003763 -0.053727
      CHANNELS 3 Zrotation Yrotation Xrotation
      JOINT Spine2
      {
        OFFSET -0.0 7.125301 -0.029825
        CHANNELS 3 Zrotation Yrotation Xrotation
        JOINT Chest
        {
          OFFSET -1e-06 7.550063 -0.815971
          CHANNELS 3 Zrotation Yrotation Xrotation
          JOINT Neck1
          {
            OFFSET -0.181677 26.311295 -0.553348
            CHANNELS 3 Zrotation Yrotation Xrotation
            JOINT Neck2
            {
              OFFSET -3e-06 7.709397 2.302585
              CHANNELS 3 Zrotation Yrotation Xrotation
              JOINT Head
              {
                OFFSET -5e-06 6.128916 1.953709
                CHANNELS 3 Zrotation Yrotation Xrotation
                JOINT HeadEnd
                {
                  OFFSET 0.003598 16.065403 -1.835379
                  CHANNELS 3 Zrotation Yrotation Xrotation
                }
                JOINT Jaw
                {
                  OFFSET 0.002637 0.475592 3.094941
                  CHANNELS 3 Zrotation Yrotation Xrotation
                }
                JOINT LeftEye
                {
                  OFFSET 3.206381 5.380205 7.586883
                  CHANNELS 3 Zrotation Yrotation Xrotation
                }
                JOINT RightEye
                {
                  OFFSET -3.22244 5.361869 7.558234
                  CHANNELS 3 Zrotation Yrotation Xrotation
                }
              }
            }
          }
          JOINT LeftShoulder
          {
            OFFSET 1.621652 23.237164 5.113413
            CHANNELS 3 Zrotation Yrotation Xrotation
            JOINT LeftArm
            {
              OFFSET 14.919846 2e-06 -5.502326
              CHANNELS 3 Zrotation Yrotation Xrotation
              JOINT LeftForeArm
              {
                OFFSET 28.739307 0.0 -0.002588
                CHANNELS 3 Zrotation Yrotation Xrotation
                JOINT LeftHand
                {
                  OFFSET 27.093981 -1e-06 0.002609
                  CHANNELS 3 Zrotation Yrotation Xrotation
                  JOINT LeftHandThumb1
                  {
                    OFFSET 2.276482 -1.392045 3.191413
                    CHANNELS 3 Zrotation Yrotation Xrotation
                    JOINT LeftHandThumb2
                    {
                      OFFSET 4.012836 -1.828127 1.641654
                      CHANNELS 3 Zrotation Yrotation Xrotation
                      JOINT LeftHandThumb3
                      {
                        OFFSET 2.798515 0.0 -3e-06
                        CHANNELS 3 Zrotation Yrotation Xrotation
                        JOINT LeftHandThumbEnd
                        {
                          OFFSET 3.180793 -4e-06 4e-06
                          CHANNELS 3 Zrotation Yrotation Xrotation
                        }
                      }
                    }
                  }
                  JOINT LeftHandIndex1
                  {
                    OFFSET 3.247555 -0.531998 2.296169
                    CHANNELS 3 Zrotation Yrotation Xrotation
                    JOINT LeftHandIndex2
                    {
                      OFFSET 6.364578 0.01206 0.1786
                      CHANNELS 3 Zrotation Yrotation Xrotation
                      JOINT LeftHandIndex3
                      {
                        OFFSET 3.662364 0.0 0.0
                        CHANNELS 3 Zrotation Yrotation Xrotation
                        JOINT LeftHandIndex4
                        {
                          OFFSET 2.329242 4e-06 4e-06
                          CHANNELS 3 Zrotation Yrotation Xrotation
                          JOINT LeftHandIndexEnd
                          {
                            OFFSET 2.759615 -0.180537 -0.113024
                            CHANNELS 3 Zrotation Yrotation Xrotation
                          }
                        }
                      }
                    }
                  }
                  JOINT LeftHandMiddle1
                  {
                    OFFSET 3.163495 0.240981 1.000332
                    CHANNELS 3 Zrotation Yrotation Xrotation
                    JOINT LeftHandMiddle2
                    {
                      OFFSET 6.19078 -0.259278 -1.002548
                      CHANNELS 3 Zrotation Yrotation Xrotation
                      JOINT LeftHandMiddle3
                      {
                        OFFSET 4.35652 -4e-06 -1e-06
                        CHANNELS 3 Zrotation Yrotation Xrotation
                        JOINT LeftHandMiddle4
                        {
                          OFFSET 2.996877 -8e-06 0.0
                          CHANNELS 3 Zrotation Yrotation Xrotation
                          JOINT LeftHandMiddleEnd
                          {
                            OFFSET 2.304287 -0.294569 -0.031741
                            CHANNELS 3 Zrotation Yrotation Xrotation
                          }
                        }
                      }
                    }
                  }
                  JOINT LeftHandRing1
                  {
                    OFFSET 2.882643 -0.053652 -0.322543
                    CHANNELS 3 Zrotation Yrotation Xrotation
                    JOINT LeftHandRing2
                    {
                      OFFSET 5.854541 -0.486202 -1.373841
                      CHANNELS 3 Zrotation Yrotation Xrotation
                      JOINT LeftHandRing3
                      {
                        OFFSET 4.350578 0.0 3e-06
                        CHANNELS 3 Zrotation Yrotation Xrotation
                        JOINT LeftHandRing4
                        {
                          OFFSET 2.651321 7e-06 2e-06
                          CHANNELS 3 Zrotation Yrotation Xrotation
                          JOINT LeftHandRingEnd
                          {
                            OFFSET 1.936105 0.077687 -7.1e-05
                            CHANNELS 3 Zrotation Yrotation Xrotation
                          }
                        }
                      }
                    }
                  }
                  JOINT LeftHandPinky1
                  {
                    OFFSET 2.8655 -0.310005 -1.600378
                    CHANNELS 3 Zrotation Yrotation Xrotation
                    JOINT LeftHandPinky2
                    {
                      OFFSET 5.087849 -1.331141 -1.77123
                      CHANNELS 3 Zrotation Yrotation Xrotation
                      JOINT LeftHandPinky3
                      {
                        OFFSET 3.070974 4e-06 0.0
                        CHANNELS 3 Zrotation Yrotation Xrotation
                        JOINT LeftHandPinky4
                        {
                          OFFSET 1.549672 0.0 1e-06
                          CHANNELS 3 Zrotation Yrotation Xrotation
                          JOINT LeftHandPinkyEnd
                          {
                            OFFSET 1.944893 -0.157802 0.057219
                            CHANNELS 3 Zrotation Yrotation Xrotation
                          }
                        }
                      }
                    }
                  }
                }
              }
            }
          }
          JOINT RightShoulder
          {
            OFFSET -1.380118 23.180309 5.214158
            CHANNELS 3 Zrotation Yrotation Xrotation
            JOINT RightArm
            {
              OFFSET -15.037196 1.2e-05 -5.545604
              CHANNELS 3 Zrotation Yrotation Xrotation
              JOINT RightForeArm
              {
                OFFSET -28.736639 2e-06 -0.002597
                CHANNELS 3 Zrotation Yrotation Xrotation
                JOINT RightHand
                {
                  OFFSET -27.133619 -0.0 0.002613
                  CHANNELS 3 Zrotation Yrotation Xrotation
                  JOINT RightHandThumb1
                  {
                    OFFSET -2.274032 -1.383988 3.163127
                    CHANNELS 3 Zrotation Yrotation Xrotation
                    JOINT RightHandThumb2
                    {
                      OFFSET -4.011429 -1.827466 1.640914
                      CHANNELS 3 Zrotation Yrotation Xrotation
                      JOINT RightHandThumb3
                      {
                        OFFSET -2.794935 -4e-06 -3e-06
                        CHANNELS 3 Zrotation Yrotation Xrotation
                        JOINT RightHandThumbEnd
                        {
                          OFFSET -3.183852 4e-06 1e-06
                          CHANNELS 3 Zrotation Yrotation Xrotation
                        }
                      }
                    }
                  }
                  JOINT RightHandIndex1
                  {
                    OFFSET -3.253266 -0.520057 2.282866
                    CHANNELS 3 Zrotation Yrotation Xrotation
                    JOINT RightHandIndex2
                    {
                      OFFSET -6.341917 0.012471 0.178266
                      CHANNELS 3 Zrotation Yrotation Xrotation
                      JOINT RightHandIndex3
                      {
                        OFFSET -3.654871 -8e-06 -0.0
                        CHANNELS 3 Zrotation Yrotation Xrotation
                        JOINT RightHandIndex4
                        {
                          OFFSET -2.327586 0.0 1e-06
                          CHANNELS 3 Zrotation Yrotation Xrotation
                          JOINT RightHandIndexEnd
                          {
                            OFFSET -2.76179 -0.180656 -0.113078
                            CHANNELS 3 Zrotation Yrotation Xrotation
                          }
                        }
                      }
                    }
                  }
                  JOINT RightHandMiddle1
                  {
                    OFFSET -3.168106 0.246593 1.00103
                    CHANNELS 3 Zrotation Yrotation Xrotation
                    JOINT RightHandMiddle2
                    {
                      OFFSET -6.180828 -0.258836 -1.000895
                      CHANNELS 3 Zrotation Yrotation Xrotation
                      JOINT RightHandMiddle3
                      {
                        OFFSET -4.348901 0.0 -0.0
                        CHANNELS 3 Zrotation Yrotation Xrotation
                        JOINT RightHandMiddle4
                        {
                          OFFSET -3.00024 -4e-06 -2e-06
                          CHANNELS 3 Zrotation Yrotation Xrotation
                          JOINT RightHandMiddleEnd
                          {
                            OFFSET -2.30252 -0.29437 -0.031706
                            CHANNELS 3 Zrotation Yrotation Xrotation
                          }
                        }
                      }
                    }
                  }
                  JOINT RightHandRing1
                  {
                    OFFSET -2.88569 -0.067952 -0.308858
                    CHANNELS 3 Zrotation Yrotation Xrotation
                    JOINT RightHandRing2
                    {
                      OFFSET -5.854198 -0.48613 -1.373731
                      CHANNELS 3 Zrotation Yrotation Xrotation
                      JOINT RightHandRing3
                      {
                        OFFSET -4.33881 -4e-06 -0.0
                        CHANNELS 3 Zrotation Yrotation Xrotation
                        JOINT RightHandRing4
                        {
                          OFFSET -2.654903 -4e-06 4e-06
                          CHANNELS 3 Zrotation Yrotation Xrotation
                          JOINT RightHandRingEnd
                          {
                            OFFSET -1.933568 0.077527 -5.2e-05
                            CHANNELS 3 Zrotation Yrotation Xrotation
                          }
                        }
                      }
                    }
                  }
                  JOINT RightHandPinky1
                  {
                    OFFSET -2.866425 -0.342796 -1.584145
                    CHANNELS 3 Zrotation Yrotation Xrotation
                    JOINT RightHandPinky2
                    {
                      OFFSET -5.091371 -1.332055 -1.772385
                      CHANNELS 3 Zrotation Yrotation Xrotation
                      JOINT RightHandPinky3
                      {
                        OFFSET -3.062664 -4e-06 1e-06
                        CHANNELS 3 Zrotation Yrotation Xrotation
                        JOINT RightHandPinky4
                        {
                          OFFSET -1.546529 4e-06 -2e-06
                          CHANNELS 3 Zrotation Yrotation Xrotation
                          JOINT RightHandPinkyEnd
                          {
                            OFFSET -1.945119 -0.157718 0.057211
                            CHANNELS 3 Zrotation Yrotation Xrotation
                          }
                        }
                      }
                    }
                  }
                }
              }
            }
          }
        }
      }
    }
    JOINT LeftLeg
    {
      OFFSET 10.043214 -8.434526 2.595655
      CHANNELS 3 Zrotation Yrotation Xrotation
      JOINT LeftShin
      {
        OFFSET -1e-06 -43.221752 -0.802913
        CHANNELS 3 Zrotation Yrotation Xrotation
        JOINT LeftFoot
        {
          OFFSET 1e-06 -42.155094 -3.481523
          CHANNELS 3 Zrotation Yrotation Xrotation
          JOINT LeftToeBase
          {
            OFFSET 0.0 -5.059472 13.231529
            CHANNELS 3 Zrotation Yrotation Xrotation
            JOINT LeftToeEnd
            {
              OFFSET -0.009607 -1.647619 6.513017
              CHANNELS 3 Zrotation Yrotation Xrotation
            }
          }
        }
      }
    }
    JOINT RightLeg
    {
      OFFSET -10.047278 -8.29526 2.620317
      CHANNELS 3 Zrotation Yrotation Xrotation
      JOINT RightShin
      {
        OFFSET 1e-06 -43.362206 -0.805556
        CHANNELS 3 Zrotation Yrotation Xrotation
        JOINT RightFoot
        {
          OFFSET 2e-06 -42.117393 -3.478398
          CHANNELS 3 Zrotation Yrotation Xrotation
          JOINT RightToeBase
          {
            OFFSET -0.0 -5.079609 13.284196
            CHANNELS 3 Zrotation Yrotation Xrotation
            JOINT RightToeEnd
            {
              OFFSET 0.009532 -1.634378 6.460591
              CHANNELS 3 Zrotation Yrotation Xrotation
            }
          }
        }
      }
    }
  }
}
MOTION
Frames: 4
Frame Time: 0.03333333333333333
0.0 0.0 0.0 0.0 -0.0 0.0 -4.315036 14.173067 -0.037985 50.050732 -2.52697 88.527542 -9.531802 -1.411112 -3.656547 -2.644212 -2.77292 -5.032153 -19.820601 -7.512715 11.087896 -9.009496 1.623152 -6.071465 -2.900001 -13.038177 -3.076976 -8.051599 -13.402031 15.090591 7.6e-05 -2.2e-05 6e-06 0.556181 -0.16354 -0.25941 1.631311 -3.971019 -11.502872 -0.526557 3.642293 -11.376929 12.346518 -22.894403 3.376447 -28.585499 -46.094116 -15.726295 -175.39769 -64.25708 176.3349 -9.014362 -4.55652 -13.262641 -5.882119 9.861294 0.702591 -10.936887 -0.360574 7.156213 -0.0 8.774831 -0.0 -16.772644 17.839502 5.490741 -1.844034 2.498507 -2.507281 -10.163614 4.678951 4.621113 -20.976055 1e-06 1e-06 -21.226318 2.451702 -3.594005 0.0 -5e-06 -1e-06 -1.362682 2.2408 -0.746324 -21.334944 0.584915 3.008325 -13.821235 -0.0 1e-06 -23.887203 -0.249076 -0.839488 -62.59856 2.79918 -2.069391 -0.294025 1.67969 0.833257 -14.218226 0.093217 1.300582 -34.212097 -0.287558 0.967168 -20.033241 0.96454 1.212842 -1e-06 0.0 0.0 -3.440393 0.788236 0.501656 -15.928206 -3.167308 2.99971 -6.338833 0.0 1e-06 -18.123472 3.648187 -4.905676 -4e-06 -1e-06 -2e-06 -27.078583 -3.75177 3.056782 4.209827 45.087341 -58.402798 1.285085 78.541519 -1.367671 -27.052277 -15.532959 49.296658 2.243542 -5.255044 -3.180159 14.282896 -0.826592 6.952507 -1e-06 -12.69061 -3e-06 17.387659 -18.39934 3.16592 1.665666 -1.955921 -2.878299 4.727801 -4.17059 4.993925 11.02053 3e-06 0.0 12.109056 -3.73572 -2.866785 0.0 -0.0 0.0 1.291986 -1.92855 -1.498089 14.800138 0.56747 3.865612 14.242579 -1.341737 -6.66066 19.631973 0.143925 -0.648243 51.441265 -1.360616 -5.637983 0.353028 -1.511152 -0.03194 20.222801 3.68431 2.316634 18.787283 5e-06 1e-06 10.751632 -0.479869 1.397909 -1e-06 -0.0 -0.0 3.273808 0.305946 -0.580111 21.486828 11.830383 2.26614 8.16293 2e-06 0.0 18.399088 -3.798985 -4.940576 2e-06 1e-06 -1e-06 -5.469244 26.962311 -90.341331 -3.50208 -0.037972 104.069984 5.48108 33.758381 -4.057861 1.860395 -2.211891 -4.159671 0.0 -0.0 2e-06 2.363467 56.540916 -0.496426 -6.112266 -36.947651 8.416323 6.858398 -4.458239 -6.755163 -0.380172 0.819263 -7.033012 0.0 0.0 -1e-06 
0.0 0.0 0.0 0.0 -0.0 0.0 -3.152323 14.652294 0.002458 50.727619 -2.911913 88.596375 -8.357672 -1.164018 -3.496128 -2.333386 -2.505429 -5.026346 -19.336241 -7.984288 10.30664 -10.106054 1.684052 -11.717558 -4.168229 -12.706613 -3.049536 -9.571637 -13.373907 14.283148 7.9e-05 -2.2e-05 6e-06 0.402195 -0.157675 -0.298228 1.448712 -4.077092 -11.679835 -0.649178 3.753202 -11.52727 12.248865 -23.143612 3.144568 -30.414505 -43.487755 -15.528872 -175.903717 -64.080544 177.078751 -8.790743 -6.323653 -17.748684 -5.88211 9.86129 0.702587 -10.936876 -0.360576 7.156209 1e-06 8.774829 -3e-06 -16.973324 17.742664 5.510645 -1.844035 2.498506 -2.50728 -10.163606 4.678946 4.621109 -20.976036 -2e-06 -1e-06 -21.226301 2.451697 -3.594006 1e-06 -5e-06 -0.0 -1.362684 2.2408 -0.746325 -21.334929 0.584912 3.008325 -13.821221 -1e-06 2e-06 -23.887182 -0.249077 -0.839486 -63.021603 2.76626 -1.986371 -0.294025 1.679688 0.833256 -14.218217 0.093215 1.300581 -34.212074 -0.287563 0.967169 -20.033228 0.964537 1.212844 0.0 1e-06 -0.0 -3.440389 0.788233 0.501656 -15.928196 -3.167311 2.99971 -6.338829 -1e-06 1e-06 -18.123457 3.648182 -4.905676 -4e-06 -1e-06 -2e-06 -27.321663 -3.548136 3.399992 1.088797 42.1297 -58.154121 3.28938 79.965073 0.760747 -25.841503 -17.582594 47.783054 2.243543 -5.25504 -3.18016 14.282898 -0.826594 6.952505 -3e-06 -12.690614 -2e-06 17.199436 -18.527599 3.130518 1.665668 -1.955921 -2.878301 4.7278 -4.170588 4.993926 11.020534 3e-06 -2e-06 12.109058 -3.735716 -2.866788 0.0 -0.0 1e-06 1.291986 -1.92855 -1.49809 14.800138 0.567471 3.865607 14.242582 -1.341735 -6.660664 19.631981 0.143931 -0.648247 51.671436 -1.431141 -5.474994 0.353029 -1.511151 -0.031941 20.222803 3.684315 2.316629 18.787287 9e-06 -2e-06 10.751634 -0.479865 1.397907 -1e-06 -1e-06 1e-06 3.273809 0.30595 -0.580112 21.486828 11.830386 2.266133 8.16293 2e-06 -1e-06 18.399092 -3.798983 -4.940579 2e-06 0.0 -1e-06 -6.030015 24.951929 -87.044174 -3.607461 -0.649999 95.453606 6.616743 33.130482 -0.787158 1.951372 -2.254928 -4.061785 -0.0 -1e-06 2e-06 2.514588 55.644604 1.819886 -6.447731 -37.545082 9.187646 6.752452 -4.891216 -8.432573 -0.364639 0.849265 -7.265651 0.0 0.0 -1e-06 
0.0 0.0 0.0 0.0 -0.0 0.0 -0.368615 15.149087 -0.143494 50.677189 -3.373937 88.16748 -7.357924 -0.804095 -3.209975 -2.200025 -2.563712 -4.867575 -17.984488 -8.277619 9.447433 -11.250226 1.988722 -17.791805 -5.559572 -12.385706 -2.99088 -10.944074 -12.980281 13.383569 7.8e-05 -2.3e-05 6e-06 0.336915 -0.167472 -0.321205 1.357402 -4.120744 -11.731 -0.686376 3.776413 -11.520834 13.178102 -23.100174 2.950335 -31.378792 -39.967724 -15.597543 -177.806335 -62.894985 179.556152 -8.253063 -8.768577 -26.857983 -5.882113 9.861295 0.702591 -10.936881 -0.360573 7.156212 -1e-06 8.77483 -1e-06 -17.42083 17.481688 5.349895 -1.844036 2.498507 -2.507278 -10.16361 4.67895 4.621113 -20.976042 1e-06 3e-06 -21.226309 2.451703 -3.594002 0.0 -7e-06 -0.0 -1.362682 2.2408 -0.746324 -21.334932 0.584913 3.008326 -13.821225 -0.0 3e-06 -23.887192 -0.249075 -0.839485 -63.44635 2.648659 -1.878841 -0.294025 1.679688 0.833257 -14.218221 0.093218 1.300583 -34.212078 -0.287559 0.967169 -20.03323 0.96454 1.212843 -1e-06 1e-06 0.0 -3.440393 0.788235 0.501656 -15.928201 -3.167309 2.999711 -6.338833 0.0 2e-06 -18.123463 3.648188 -4.905675 -4e-06 -0.0 -3e-06 -26.834547 -3.282295 3.906195 -3.569447 37.816654 -58.251507 10.897529 82.889885 8.65242 -23.509014 -19.673986 46.283962 2.243543 -5.255035 -3.180161 14.282898 -0.826592 6.952507 -4e-06 -12.69061 0.0 17.268578 -18.389822 3.027232 1.665667 -1.95592 -2.8783 4.7278 -4.170588 4.993927 11.020534 3e-06 -2e-06 12.109058 -3.735717 -2.866787 1e-06 -0.0 0.0 1.291986 -1.928548 -1.498091 14.800138 0.567471 3.865609 14.242579 -1.341734 -6.660663 19.631977 0.143929 -0.648245 51.780209 -1.435123 -5.395528 0.353029 -1.51115 -0.03194 20.222803 3.684313 2.316632 18.787287 7e-06 -0.0 10.751636 -0.479866 1.397907 -1e-06 0.0 -1e-06 3.273808 0.305946 -0.580112 21.486826 11.830379 2.266134 8.16293 5e-06 -1e-06 18.399094 -3.798983 -4.940576 3e-06 0.0 -1e-06 -6.814522 23.441792 -83.340668 -3.788416 -1.531917 88.031143 6.806657 30.782095 1.939946 1.96289 -2.319508 -3.978729 -0.0 -0.0 2e-06 2.458065 55.928181 4.544371 -6.570127 -39.271393 10.181682 6.301813 -5.024697 -9.808647 -0.399676 0.831705 -7.880835 0.0 0.0 -1e-06 
0.0 0.0 0.0 0.0 -0.0 0.0 2.586906 15.187359 -0.218408 49.562141 -4.021669 87.89592 -6.658869 -0.542713 -3.291926 -2.053375 -2.716521 -4.815585 -16.466387 -8.310902 8.498398 -11.9471 2.288082 -22.404259 -6.565558 -12.0571 -2.885915 -11.920722 -11.966015 13.386659 7.7e-05 -2.3e-05 7e-06 0.300001 -0.175374 -0.338357 1.313554 -4.110138 -11.643312 -0.717151 3.752706 -11.383617 14.945953 -22.605412 2.510398 -30.852406 -35.290981 -17.297064 -178.842377 -60.946156 -178.786163 -7.410918 -11.558643 -38.392227 -5.882114 9.861294 0.70259 -10.936881 -0.360574 7.156212 -2e-06 8.77483 -2e-06 -17.899546 17.28615 5.101826 -1.844034 2.498506 -2.507279 -10.163611 4.678952 4.621112 -20.976044 4e-06 2e-06 -21.226311 2.451705 -3.594004 -0.0 -7e-06 0.0 -1.362683 2.2408 -0.746325 -21.334934 0.584916 3.008326 -13.821227 2e-06 2e-06 -23.887192 -0.249073 -0.839488 -63.460239 2.467525 -1.765151 -0.294024 1.679688 0.833256 -14.218222 0.093219 1.300582 -34.212082 -0.287553 0.967167 -20.033232 0.964541 1.21284 -1e-06 0.0 -0.0 -3.440391 0.788234 0.501656 -15.928201 -3.167307 2.999711 -6.338833 1e-06 2e-06 -18.123465 3.648189 -4.905676 -4e-06 1e-06 -2e-06 -25.40399 -3.568279 4.098639 -8.335435 33.908813 -57.45422 26.067387 86.740089 23.804258 -21.271435 -21.751833 47.215084 2.243543 -5.255043 -3.180162 14.282898 -0.826592 6.952506 -3e-06 -12.690616 -1e-06 17.361084 -18.240107 2.818973 1.665668 -1.955925 -2.878303 4.7278 -4.170588 4.993927 11.020533 4e-06 -4e-06 12.10906 -3.735719 -2.866791 1e-06 -0.0 1e-06 1.291986 -1.928551 -1.498091 14.800136 0.567468 3.865607 14.24258 -1.341737 -6.660667 19.631979 0.143928 -0.648248 51.615559 -1.285191 -5.572548 0.353029 -1.511153 -0.03194 20.222803 3.684318 2.31663 18.787285 8e-06 -3e-06 10.751636 -0.479868 1.397908 0.0 -1e-06 1e-06 3.273809 0.305947 -0.580112 21.486828 11.83039 2.266134 8.162932 3e-06 -0.0 18.399096 -3.798984 -4.940581 4e-06 0.0 -1e-06 -7.959303 23.509165 -80.652031 -4.050486 -2.06343 84.291672 5.569499 29.880302 2.20246 1.9009 -2.457853 -4.389884 0.0 -0.0 2e-06 2.573717 57.547802 7.704012 -6.209143 -42.265194 10.429724 6.221795 -5.057361 -10.695583 -0.401093 0.754563 -7.678442 -0.0 0.0 -0.0 
